<svg width="266" height="73" viewBox="0 0 266 73" fill="none" xmlns="http://www.w3.org/2000/svg">
<path d="M40.1999 41.3999H35.3999V45.5999H40.1999V41.3999Z" fill="#23963C"/>
<path d="M38.0001 14.2L15.6001 29.5329V57.6L38.0001 42.267V14.2Z" fill="#8BF4A1"/>
<path d="M38 14.2L60.2 29.5329V57.6L38 42.267V14.2Z" fill="#30CF52"/>
<path d="M38 14.2L60.2 29.5329V57.6L38 42.267V14.2Z" fill="url(#paint0_linear)"/>
<path d="M38.0001 71.8L15.6001 57.0146V29L38.0001 43.7855V71.8Z" fill="#45ED69"/>
<path d="M38 72L60.2 57.1455V29L38 43.8546V72Z" fill="#30CF52"/>
<path d="M17.7071 29.2L39.4 14.1861L24.2027 1L3 15.8833L17.7071 29.2Z" fill="#45ED69"/>
<path d="M59.8931 29.4L38.2002 14.3861L53.3975 1.19995L74.6002 16.0833L59.8931 29.4Z" fill="#30CF52"/>
<path d="M38 43.6896L60.1978 29.3999L74.8 42.1308L53.2084 57.1999L38 43.6896Z" fill="#23993D" fill-opacity="0.5"/>
<path d="M37.5998 43.6896L15.8831 29.3999L0.799805 42.1308L22.1415 57.1999L37.5998 43.6896Z" fill="#23993D" fill-opacity="0.5"/>
<path d="M1.0455 16.0694L22.5438 1.12991L37.777 14.5105L53.1329 1L74.9998 16.0694L60.0124 28.9303L74.877 41.9211L60.1352 52.4437V56.7306L37.777 71.8L15.6644 56.8606V52.3138L0.799805 41.6613L15.7872 29.1901L1.0455 16.0694Z" stroke="#29B347" stroke-linejoin="round"/>
<path d="M97.3574 38.6465H91.3457V49H87.9531V23.4062H96.4258C99.3086 23.4062 101.523 24.0625 103.07 25.375C104.629 26.6875 105.408 28.5977 105.408 31.1055C105.408 32.6992 104.975 34.0879 104.107 35.2715C103.252 36.4551 102.057 37.3398 100.521 37.9258L106.533 48.7891V49H102.912L97.3574 38.6465ZM91.3457 35.8867H96.5312C98.207 35.8867 99.5371 35.4531 100.521 34.5859C101.518 33.7188 102.016 32.5586 102.016 31.1055C102.016 29.5234 101.541 28.3105 100.592 27.4668C99.6543 26.623 98.2949 26.1953 96.5137 26.1836H91.3457V35.8867ZM108.783 39.3145C108.783 37.4512 109.146 35.7754 109.873 34.2871C110.611 32.7988 111.631 31.6504 112.932 30.8418C114.244 30.0332 115.738 29.6289 117.414 29.6289C120.004 29.6289 122.096 30.5254 123.689 32.3184C125.295 34.1113 126.098 36.4961 126.098 39.4727V39.7012C126.098 41.5527 125.74 43.2168 125.025 44.6934C124.322 46.1582 123.309 47.3008 121.984 48.1211C120.672 48.9414 119.16 49.3516 117.449 49.3516C114.871 49.3516 112.779 48.4551 111.174 46.6621C109.58 44.8691 108.783 42.4961 108.783 39.543V39.3145ZM112.053 39.7012C112.053 41.8105 112.539 43.5039 113.512 44.7812C114.496 46.0586 115.809 46.6973 117.449 46.6973C119.102 46.6973 120.414 46.0527 121.387 44.7637C122.359 43.4629 122.846 41.6465 122.846 39.3145C122.846 37.2285 122.348 35.541 121.352 34.252C120.367 32.9512 119.055 32.3008 117.414 32.3008C115.809 32.3008 114.514 32.9395 113.529 34.2168C112.545 35.4941 112.053 37.3223 112.053 39.7012ZM137.805 46.6973C138.965 46.6973 139.979 46.3457 140.846 45.6426C141.713 44.9395 142.193 44.0605 142.287 43.0059H145.363C145.305 44.0957 144.93 45.1328 144.238 46.1172C143.547 47.1016 142.621 47.8867 141.461 48.4727C140.312 49.0586 139.094 49.3516 137.805 49.3516C135.215 49.3516 133.152 48.4902 131.617 46.7676C130.094 45.0332 129.332 42.666 129.332 39.666V39.1211C129.332 37.2695 129.672 35.623 130.352 34.1816C131.031 32.7402 132.004 31.6211 133.27 30.8242C134.547 30.0273 136.053 29.6289 137.787 29.6289C139.92 29.6289 141.689 30.2676 143.096 31.5449C144.514 32.8223 145.27 34.4805 145.363 36.5195H142.287C142.193 35.2891 141.725 34.2812 140.881 33.4961C140.049 32.6992 139.018 32.3008 137.787 32.3008C136.135 32.3008 134.852 32.8984 133.938 34.0938C133.035 35.2773 132.584 36.9941 132.584 39.2441V39.8594C132.584 42.0508 133.035 43.7383 133.938 44.9219C134.84 46.1055 136.129 46.6973 137.805 46.6973ZM154.328 40.1934L152.289 42.3203V49H149.037V22H152.289V38.3301L154.029 36.2383L159.953 29.9805H163.908L156.508 37.9258L164.77 49H160.955L154.328 40.1934ZM174.807 49.3516C172.229 49.3516 170.131 48.5078 168.514 46.8203C166.896 45.1211 166.088 42.8535 166.088 40.0176V39.4199C166.088 37.5332 166.445 35.8516 167.16 34.375C167.887 32.8867 168.895 31.7266 170.184 30.8945C171.484 30.0508 172.891 29.6289 174.402 29.6289C176.875 29.6289 178.797 30.4434 180.168 32.0723C181.539 33.7012 182.225 36.0332 182.225 39.0684V40.4219H169.34C169.387 42.2969 169.932 43.8145 170.975 44.9746C172.029 46.123 173.365 46.6973 174.982 46.6973C176.131 46.6973 177.104 46.4629 177.9 45.9941C178.697 45.5254 179.395 44.9043 179.992 44.1309L181.979 45.6777C180.385 48.127 177.994 49.3516 174.807 49.3516ZM174.402 32.3008C173.09 32.3008 171.988 32.7812 171.098 33.7422C170.207 34.6914 169.656 36.0273 169.445 37.75H178.973V37.5039C178.879 35.8516 178.434 34.5742 177.637 33.6719C176.84 32.7578 175.762 32.3008 174.402 32.3008ZM190.416 25.375V29.9805H193.967V32.4941H190.416V44.2891C190.416 45.0508 190.574 45.625 190.891 46.0117C191.207 46.3867 191.746 46.5742 192.508 46.5742C192.883 46.5742 193.398 46.5039 194.055 46.3633V49C193.199 49.2344 192.367 49.3516 191.559 49.3516C190.105 49.3516 189.01 48.9121 188.271 48.0332C187.533 47.1543 187.164 45.9062 187.164 44.2891V32.4941H183.701V29.9805H187.164V25.375H190.416ZM204.549 39.4551H195.971V36.8008H204.549V39.4551ZM208.24 49V23.4062H216.607C219.385 23.4062 221.471 23.9805 222.865 25.1289C224.271 26.2773 224.975 27.9766 224.975 30.2266C224.975 31.4219 224.635 32.4824 223.955 33.4082C223.275 34.3223 222.35 35.0312 221.178 35.5352C222.561 35.9219 223.65 36.6602 224.447 37.75C225.256 38.8281 225.66 40.1172 225.66 41.6172C225.66 43.9141 224.916 45.7188 223.428 47.0312C221.939 48.3438 219.836 49 217.117 49H208.24ZM211.615 37.0293V46.2402H217.188C218.758 46.2402 219.994 45.8359 220.896 45.0273C221.811 44.207 222.268 43.082 222.268 41.6523C222.268 38.5703 220.592 37.0293 217.24 37.0293H211.615ZM211.615 34.3223H216.713C218.189 34.3223 219.367 33.9531 220.246 33.2148C221.137 32.4766 221.582 31.4746 221.582 30.209C221.582 28.8027 221.172 27.7832 220.352 27.1504C219.531 26.5059 218.283 26.1836 216.607 26.1836H211.615V34.3223ZM229.299 39.3145C229.299 37.4512 229.662 35.7754 230.389 34.2871C231.127 32.7988 232.146 31.6504 233.447 30.8418C234.76 30.0332 236.254 29.6289 237.93 29.6289C240.52 29.6289 242.611 30.5254 244.205 32.3184C245.811 34.1113 246.613 36.4961 246.613 39.4727V39.7012C246.613 41.5527 246.256 43.2168 245.541 44.6934C244.838 46.1582 243.824 47.3008 242.5 48.1211C241.188 48.9414 239.676 49.3516 237.965 49.3516C235.387 49.3516 233.295 48.4551 231.689 46.6621C230.096 44.8691 229.299 42.4961 229.299 39.543V39.3145ZM232.568 39.7012C232.568 41.8105 233.055 43.5039 234.027 44.7812C235.012 46.0586 236.324 46.6973 237.965 46.6973C239.617 46.6973 240.93 46.0527 241.902 44.7637C242.875 43.4629 243.361 41.6465 243.361 39.3145C243.361 37.2285 242.863 35.541 241.867 34.252C240.883 32.9512 239.57 32.3008 237.93 32.3008C236.324 32.3008 235.029 32.9395 234.045 34.2168C233.061 35.4941 232.568 37.3223 232.568 39.7012ZM256.686 36.9238L260.904 29.9805H264.701L258.479 39.3848L264.895 49H261.133L256.738 41.8809L252.344 49H248.564L254.98 39.3848L248.758 29.9805H252.52L256.686 36.9238Z" fill="#30CF52"/>
<path d="M97.3574 38.6465H91.3457V49H87.9531V23.4062H96.4258C99.3086 23.4062 101.523 24.0625 103.07 25.375C104.629 26.6875 105.408 28.5977 105.408 31.1055C105.408 32.6992 104.975 34.0879 104.107 35.2715C103.252 36.4551 102.057 37.3398 100.521 37.9258L106.533 48.7891V49H102.912L97.3574 38.6465ZM91.3457 35.8867H96.5312C98.207 35.8867 99.5371 35.4531 100.521 34.5859C101.518 33.7188 102.016 32.5586 102.016 31.1055C102.016 29.5234 101.541 28.3105 100.592 27.4668C99.6543 26.623 98.2949 26.1953 96.5137 26.1836H91.3457V35.8867ZM108.783 39.3145C108.783 37.4512 109.146 35.7754 109.873 34.2871C110.611 32.7988 111.631 31.6504 112.932 30.8418C114.244 30.0332 115.738 29.6289 117.414 29.6289C120.004 29.6289 122.096 30.5254 123.689 32.3184C125.295 34.1113 126.098 36.4961 126.098 39.4727V39.7012C126.098 41.5527 125.74 43.2168 125.025 44.6934C124.322 46.1582 123.309 47.3008 121.984 48.1211C120.672 48.9414 119.16 49.3516 117.449 49.3516C114.871 49.3516 112.779 48.4551 111.174 46.6621C109.58 44.8691 108.783 42.4961 108.783 39.543V39.3145ZM112.053 39.7012C112.053 41.8105 112.539 43.5039 113.512 44.7812C114.496 46.0586 115.809 46.6973 117.449 46.6973C119.102 46.6973 120.414 46.0527 121.387 44.7637C122.359 43.4629 122.846 41.6465 122.846 39.3145C122.846 37.2285 122.348 35.541 121.352 34.252C120.367 32.9512 119.055 32.3008 117.414 32.3008C115.809 32.3008 114.514 32.9395 113.529 34.2168C112.545 35.4941 112.053 37.3223 112.053 39.7012ZM137.805 46.6973C138.965 46.6973 139.979 46.3457 140.846 45.6426C141.713 44.9395 142.193 44.0605 142.287 43.0059H145.363C145.305 44.0957 144.93 45.1328 144.238 46.1172C143.547 47.1016 142.621 47.8867 141.461 48.4727C140.312 49.0586 139.094 49.3516 137.805 49.3516C135.215 49.3516 133.152 48.4902 131.617 46.7676C130.094 45.0332 129.332 42.666 129.332 39.666V39.1211C129.332 37.2695 129.672 35.623 130.352 34.1816C131.031 32.7402 132.004 31.6211 133.27 30.8242C134.547 30.0273 136.053 29.6289 137.787 29.6289C139.92 29.6289 141.689 30.2676 143.096 31.5449C144.514 32.8223 145.27 34.4805 145.363 36.5195H142.287C142.193 35.2891 141.725 34.2812 140.881 33.4961C140.049 32.6992 139.018 32.3008 137.787 32.3008C136.135 32.3008 134.852 32.8984 133.938 34.0938C133.035 35.2773 132.584 36.9941 132.584 39.2441V39.8594C132.584 42.0508 133.035 43.7383 133.938 44.9219C134.84 46.1055 136.129 46.6973 137.805 46.6973ZM154.328 40.1934L152.289 42.3203V49H149.037V22H152.289V38.3301L154.029 36.2383L159.953 29.9805H163.908L156.508 37.9258L164.77 49H160.955L154.328 40.1934ZM174.807 49.3516C172.229 49.3516 170.131 48.5078 168.514 46.8203C166.896 45.1211 166.088 42.8535 166.088 40.0176V39.4199C166.088 37.5332 166.445 35.8516 167.16 34.375C167.887 32.8867 168.895 31.7266 170.184 30.8945C171.484 30.0508 172.891 29.6289 174.402 29.6289C176.875 29.6289 178.797 30.4434 180.168 32.0723C181.539 33.7012 182.225 36.0332 182.225 39.0684V40.4219H169.34C169.387 42.2969 169.932 43.8145 170.975 44.9746C172.029 46.123 173.365 46.6973 174.982 46.6973C176.131 46.6973 177.104 46.4629 177.9 45.9941C178.697 45.5254 179.395 44.9043 179.992 44.1309L181.979 45.6777C180.385 48.127 177.994 49.3516 174.807 49.3516ZM174.402 32.3008C173.09 32.3008 171.988 32.7812 171.098 33.7422C170.207 34.6914 169.656 36.0273 169.445 37.75H178.973V37.5039C178.879 35.8516 178.434 34.5742 177.637 33.6719C176.84 32.7578 175.762 32.3008 174.402 32.3008ZM190.416 25.375V29.9805H193.967V32.4941H190.416V44.2891C190.416 45.0508 190.574 45.625 190.891 46.0117C191.207 46.3867 191.746 46.5742 192.508 46.5742C192.883 46.5742 193.398 46.5039 194.055 46.3633V49C193.199 49.2344 192.367 49.3516 191.559 49.3516C190.105 49.3516 189.01 48.9121 188.271 48.0332C187.533 47.1543 187.164 45.9062 187.164 44.2891V32.4941H183.701V29.9805H187.164V25.375H190.416ZM204.549 39.4551H195.971V36.8008H204.549V39.4551ZM208.24 49V23.4062H216.607C219.385 23.4062 221.471 23.9805 222.865 25.1289C224.271 26.2773 224.975 27.9766 224.975 30.2266C224.975 31.4219 224.635 32.4824 223.955 33.4082C223.275 34.3223 222.35 35.0312 221.178 35.5352C222.561 35.9219 223.65 36.6602 224.447 37.75C225.256 38.8281 225.66 40.1172 225.66 41.6172C225.66 43.9141 224.916 45.7188 223.428 47.0312C221.939 48.3438 219.836 49 217.117 49H208.24ZM211.615 37.0293V46.2402H217.188C218.758 46.2402 219.994 45.8359 220.896 45.0273C221.811 44.207 222.268 43.082 222.268 41.6523C222.268 38.5703 220.592 37.0293 217.24 37.0293H211.615ZM211.615 34.3223H216.713C218.189 34.3223 219.367 33.9531 220.246 33.2148C221.137 32.4766 221.582 31.4746 221.582 30.209C221.582 28.8027 221.172 27.7832 220.352 27.1504C219.531 26.5059 218.283 26.1836 216.607 26.1836H211.615V34.3223ZM229.299 39.3145C229.299 37.4512 229.662 35.7754 230.389 34.2871C231.127 32.7988 232.146 31.6504 233.447 30.8418C234.76 30.0332 236.254 29.6289 237.93 29.6289C240.52 29.6289 242.611 30.5254 244.205 32.3184C245.811 34.1113 246.613 36.4961 246.613 39.4727V39.7012C246.613 41.5527 246.256 43.2168 245.541 44.6934C244.838 46.1582 243.824 47.3008 242.5 48.1211C241.188 48.9414 239.676 49.3516 237.965 49.3516C235.387 49.3516 233.295 48.4551 231.689 46.6621C230.096 44.8691 229.299 42.4961 229.299 39.543V39.3145ZM232.568 39.7012C232.568 41.8105 233.055 43.5039 234.027 44.7812C235.012 46.0586 236.324 46.6973 237.965 46.6973C239.617 46.6973 240.93 46.0527 241.902 44.7637C242.875 43.4629 243.361 41.6465 243.361 39.3145C243.361 37.2285 242.863 35.541 241.867 34.252C240.883 32.9512 239.57 32.3008 237.93 32.3008C236.324 32.3008 235.029 32.9395 234.045 34.2168C233.061 35.4941 232.568 37.3223 232.568 39.7012ZM256.686 36.9238L260.904 29.9805H264.701L258.479 39.3848L264.895 49H261.133L256.738 41.8809L252.344 49H248.564L254.98 39.3848L248.758 29.9805H252.52L256.686 36.9238Z" fill="url(#paint1_linear)"/>
<defs>
<linearGradient id="paint0_linear" x1="49.1" y1="14.2" x2="49.1" y2="57.6" gradientUnits="userSpaceOnUse">
<stop stop-color="#45ED69"/>
<stop offset="0.145833" stop-color="#8BF4A1" stop-opacity="0.625"/>
<stop offset="1" stop-color="white" stop-opacity="0"/>
</linearGradient>
<linearGradient id="paint1_linear" x1="175.5" y1="16" x2="175.5" y2="58" gradientUnits="userSpaceOnUse">
<stop offset="0.484275" stop-color="white" stop-opacity="0"/>
<stop offset="0.484375" stop-color="#23993D"/>
</linearGradient>
</defs>
</svg>
