<svg width="267" height="73" viewBox="0 0 267 73" fill="none" xmlns="http://www.w3.org/2000/svg">
<path d="M40.3999 41.4H35.5999V45.6H40.3999V41.4Z" fill="#C8C8FF"/>
<path d="M38.1998 14.2L15.7998 29.5329V57.6L38.1998 42.267V14.2Z" fill="url(#paint0_linear)"/>
<path d="M38.2 14.2L60.3999 29.5329V57.6L38.2 42.267V14.2Z" fill="url(#paint1_linear)"/>
<path d="M38.1998 71.8L15.7998 57.0146V29L38.1998 43.7855V71.8Z" fill="url(#paint2_linear)"/>
<path d="M38.2 72L60.3999 57.1455V29L38.2 43.8546V72Z" fill="url(#paint3_linear)"/>
<path d="M16.107 29.4001L37.7999 14.3862L22.6026 1.20007L1.3999 16.0834L16.107 29.4001Z" fill="url(#paint4_linear)"/>
<path d="M60.0928 29.4001L38.3999 14.3862L53.5972 1.20007L74.7999 16.0834L60.0928 29.4001Z" fill="url(#paint5_linear)"/>
<path d="M38.2 43.6898L60.3978 29.4L75 42.1309L53.4084 57.2L38.2 43.6898Z" fill="url(#paint6_linear)"/>
<path d="M37.8 43.6898L16.0833 29.4L1 42.1309L22.3417 57.2L37.8 43.6898Z" fill="url(#paint7_linear)"/>
<path d="M1.2457 16.0694L22.744 1.12991L37.9771 14.5105L53.3331 1L75.2 16.0694L60.2126 28.9303L75.0771 41.9211L60.3354 52.4437V56.7306L37.9771 71.8L15.8646 56.8606V52.3138L1 41.6613L15.9874 29.1901L1.2457 16.0694Z" stroke="#FF00E5" stroke-width="2" stroke-linejoin="round"/>
<path d="M97.5574 38.6465H91.5457V49H88.1531V23.4062H96.6257C99.5085 23.4062 101.723 24.0625 103.27 25.375C104.829 26.6875 105.608 28.5977 105.608 31.1055C105.608 32.6992 105.175 34.0879 104.307 35.2715C103.452 36.4551 102.257 37.3398 100.721 37.9258L106.733 48.7891V49H103.112L97.5574 38.6465ZM91.5457 35.8867H96.7312C98.407 35.8867 99.7371 35.4531 100.721 34.5859C101.718 33.7188 102.216 32.5586 102.216 31.1055C102.216 29.5234 101.741 28.3105 100.792 27.4668C99.8542 26.623 98.4949 26.1953 96.7136 26.1836H91.5457V35.8867ZM108.983 39.3145C108.983 37.4512 109.346 35.7754 110.073 34.2871C110.811 32.7988 111.831 31.6504 113.132 30.8418C114.444 30.0332 115.938 29.6289 117.614 29.6289C120.204 29.6289 122.296 30.5254 123.889 32.3184C125.495 34.1113 126.298 36.4961 126.298 39.4727V39.7012C126.298 41.5527 125.94 43.2168 125.225 44.6934C124.522 46.1582 123.509 47.3008 122.184 48.1211C120.872 48.9414 119.36 49.3516 117.649 49.3516C115.071 49.3516 112.979 48.4551 111.374 46.6621C109.78 44.8691 108.983 42.4961 108.983 39.543V39.3145ZM112.253 39.7012C112.253 41.8105 112.739 43.5039 113.712 44.7812C114.696 46.0586 116.009 46.6973 117.649 46.6973C119.302 46.6973 120.614 46.0527 121.587 44.7637C122.559 43.4629 123.046 41.6465 123.046 39.3145C123.046 37.2285 122.548 35.541 121.552 34.252C120.567 32.9512 119.255 32.3008 117.614 32.3008C116.009 32.3008 114.714 32.9395 113.729 34.2168C112.745 35.4941 112.253 37.3223 112.253 39.7012ZM138.005 46.6973C139.165 46.6973 140.178 46.3457 141.046 45.6426C141.913 44.9395 142.393 44.0605 142.487 43.0059H145.563C145.505 44.0957 145.13 45.1328 144.438 46.1172C143.747 47.1016 142.821 47.8867 141.661 48.4727C140.512 49.0586 139.294 49.3516 138.005 49.3516C135.415 49.3516 133.352 48.4902 131.817 46.7676C130.294 45.0332 129.532 42.666 129.532 39.666V39.1211C129.532 37.2695 129.872 35.623 130.552 34.1816C131.231 32.7402 132.204 31.6211 133.469 30.8242C134.747 30.0273 136.253 29.6289 137.987 29.6289C140.12 29.6289 141.889 30.2676 143.296 31.5449C144.714 32.8223 145.469 34.4805 145.563 36.5195H142.487C142.393 35.2891 141.925 34.2812 141.081 33.4961C140.249 32.6992 139.218 32.3008 137.987 32.3008C136.335 32.3008 135.052 32.8984 134.137 34.0938C133.235 35.2773 132.784 36.9941 132.784 39.2441V39.8594C132.784 42.0508 133.235 43.7383 134.137 44.9219C135.04 46.1055 136.329 46.6973 138.005 46.6973ZM154.528 40.1934L152.489 42.3203V49H149.237V22H152.489V38.3301L154.229 36.2383L160.153 29.9805H164.108L156.708 37.9258L164.969 49H161.155L154.528 40.1934ZM175.007 49.3516C172.428 49.3516 170.331 48.5078 168.714 46.8203C167.096 45.1211 166.288 42.8535 166.288 40.0176V39.4199C166.288 37.5332 166.645 35.8516 167.36 34.375C168.087 32.8867 169.094 31.7266 170.384 30.8945C171.684 30.0508 173.091 29.6289 174.602 29.6289C177.075 29.6289 178.997 30.4434 180.368 32.0723C181.739 33.7012 182.425 36.0332 182.425 39.0684V40.4219H169.54C169.587 42.2969 170.132 43.8145 171.175 44.9746C172.229 46.123 173.565 46.6973 175.182 46.6973C176.331 46.6973 177.303 46.4629 178.1 45.9941C178.897 45.5254 179.594 44.9043 180.192 44.1309L182.178 45.6777C180.585 48.127 178.194 49.3516 175.007 49.3516ZM174.602 32.3008C173.29 32.3008 172.188 32.7812 171.298 33.7422C170.407 34.6914 169.856 36.0273 169.645 37.75H179.173V37.5039C179.079 35.8516 178.634 34.5742 177.837 33.6719C177.04 32.7578 175.962 32.3008 174.602 32.3008ZM190.616 25.375V29.9805H194.167V32.4941H190.616V44.2891C190.616 45.0508 190.774 45.625 191.091 46.0117C191.407 46.3867 191.946 46.5742 192.708 46.5742C193.083 46.5742 193.598 46.5039 194.255 46.3633V49C193.399 49.2344 192.567 49.3516 191.759 49.3516C190.305 49.3516 189.21 48.9121 188.471 48.0332C187.733 47.1543 187.364 45.9062 187.364 44.2891V32.4941H183.901V29.9805H187.364V25.375H190.616ZM204.749 39.4551H196.171V36.8008H204.749V39.4551ZM208.44 49V23.4062H216.807C219.585 23.4062 221.671 23.9805 223.065 25.1289C224.471 26.2773 225.175 27.9766 225.175 30.2266C225.175 31.4219 224.835 32.4824 224.155 33.4082C223.475 34.3223 222.55 35.0312 221.378 35.5352C222.76 35.9219 223.85 36.6602 224.647 37.75C225.456 38.8281 225.86 40.1172 225.86 41.6172C225.86 43.9141 225.116 45.7188 223.628 47.0312C222.139 48.3438 220.036 49 217.317 49H208.44ZM211.815 37.0293V46.2402H217.387C218.958 46.2402 220.194 45.8359 221.096 45.0273C222.01 44.207 222.468 43.082 222.468 41.6523C222.468 38.5703 220.792 37.0293 217.44 37.0293H211.815ZM211.815 34.3223H216.913C218.389 34.3223 219.567 33.9531 220.446 33.2148C221.337 32.4766 221.782 31.4746 221.782 30.209C221.782 28.8027 221.372 27.7832 220.552 27.1504C219.731 26.5059 218.483 26.1836 216.807 26.1836H211.815V34.3223ZM229.499 39.3145C229.499 37.4512 229.862 35.7754 230.589 34.2871C231.327 32.7988 232.346 31.6504 233.647 30.8418C234.96 30.0332 236.454 29.6289 238.13 29.6289C240.719 29.6289 242.811 30.5254 244.405 32.3184C246.01 34.1113 246.813 36.4961 246.813 39.4727V39.7012C246.813 41.5527 246.456 43.2168 245.741 44.6934C245.038 46.1582 244.024 47.3008 242.7 48.1211C241.387 48.9414 239.876 49.3516 238.165 49.3516C235.587 49.3516 233.495 48.4551 231.889 46.6621C230.296 44.8691 229.499 42.4961 229.499 39.543V39.3145ZM232.768 39.7012C232.768 41.8105 233.255 43.5039 234.227 44.7812C235.212 46.0586 236.524 46.6973 238.165 46.6973C239.817 46.6973 241.13 46.0527 242.102 44.7637C243.075 43.4629 243.561 41.6465 243.561 39.3145C243.561 37.2285 243.063 35.541 242.067 34.252C241.083 32.9512 239.77 32.3008 238.13 32.3008C236.524 32.3008 235.229 32.9395 234.245 34.2168C233.26 35.4941 232.768 37.3223 232.768 39.7012ZM256.885 36.9238L261.104 29.9805H264.901L258.678 39.3848L265.094 49H261.333L256.938 41.8809L252.544 49H248.764L255.18 39.3848L248.958 29.9805H252.719L256.885 36.9238Z" fill="#FF00E5"/>
<path d="M97.5574 38.6465H91.5457V49H88.1531V23.4062H96.6257C99.5085 23.4062 101.723 24.0625 103.27 25.375C104.829 26.6875 105.608 28.5977 105.608 31.1055C105.608 32.6992 105.175 34.0879 104.307 35.2715C103.452 36.4551 102.257 37.3398 100.721 37.9258L106.733 48.7891V49H103.112L97.5574 38.6465ZM91.5457 35.8867H96.7312C98.407 35.8867 99.7371 35.4531 100.721 34.5859C101.718 33.7188 102.216 32.5586 102.216 31.1055C102.216 29.5234 101.741 28.3105 100.792 27.4668C99.8542 26.623 98.4949 26.1953 96.7136 26.1836H91.5457V35.8867ZM108.983 39.3145C108.983 37.4512 109.346 35.7754 110.073 34.2871C110.811 32.7988 111.831 31.6504 113.132 30.8418C114.444 30.0332 115.938 29.6289 117.614 29.6289C120.204 29.6289 122.296 30.5254 123.889 32.3184C125.495 34.1113 126.298 36.4961 126.298 39.4727V39.7012C126.298 41.5527 125.94 43.2168 125.225 44.6934C124.522 46.1582 123.509 47.3008 122.184 48.1211C120.872 48.9414 119.36 49.3516 117.649 49.3516C115.071 49.3516 112.979 48.4551 111.374 46.6621C109.78 44.8691 108.983 42.4961 108.983 39.543V39.3145ZM112.253 39.7012C112.253 41.8105 112.739 43.5039 113.712 44.7812C114.696 46.0586 116.009 46.6973 117.649 46.6973C119.302 46.6973 120.614 46.0527 121.587 44.7637C122.559 43.4629 123.046 41.6465 123.046 39.3145C123.046 37.2285 122.548 35.541 121.552 34.252C120.567 32.9512 119.255 32.3008 117.614 32.3008C116.009 32.3008 114.714 32.9395 113.729 34.2168C112.745 35.4941 112.253 37.3223 112.253 39.7012ZM138.005 46.6973C139.165 46.6973 140.178 46.3457 141.046 45.6426C141.913 44.9395 142.393 44.0605 142.487 43.0059H145.563C145.505 44.0957 145.13 45.1328 144.438 46.1172C143.747 47.1016 142.821 47.8867 141.661 48.4727C140.512 49.0586 139.294 49.3516 138.005 49.3516C135.415 49.3516 133.352 48.4902 131.817 46.7676C130.294 45.0332 129.532 42.666 129.532 39.666V39.1211C129.532 37.2695 129.872 35.623 130.552 34.1816C131.231 32.7402 132.204 31.6211 133.469 30.8242C134.747 30.0273 136.253 29.6289 137.987 29.6289C140.12 29.6289 141.889 30.2676 143.296 31.5449C144.714 32.8223 145.469 34.4805 145.563 36.5195H142.487C142.393 35.2891 141.925 34.2812 141.081 33.4961C140.249 32.6992 139.218 32.3008 137.987 32.3008C136.335 32.3008 135.052 32.8984 134.137 34.0938C133.235 35.2773 132.784 36.9941 132.784 39.2441V39.8594C132.784 42.0508 133.235 43.7383 134.137 44.9219C135.04 46.1055 136.329 46.6973 138.005 46.6973ZM154.528 40.1934L152.489 42.3203V49H149.237V22H152.489V38.3301L154.229 36.2383L160.153 29.9805H164.108L156.708 37.9258L164.969 49H161.155L154.528 40.1934ZM175.007 49.3516C172.428 49.3516 170.331 48.5078 168.714 46.8203C167.096 45.1211 166.288 42.8535 166.288 40.0176V39.4199C166.288 37.5332 166.645 35.8516 167.36 34.375C168.087 32.8867 169.094 31.7266 170.384 30.8945C171.684 30.0508 173.091 29.6289 174.602 29.6289C177.075 29.6289 178.997 30.4434 180.368 32.0723C181.739 33.7012 182.425 36.0332 182.425 39.0684V40.4219H169.54C169.587 42.2969 170.132 43.8145 171.175 44.9746C172.229 46.123 173.565 46.6973 175.182 46.6973C176.331 46.6973 177.303 46.4629 178.1 45.9941C178.897 45.5254 179.594 44.9043 180.192 44.1309L182.178 45.6777C180.585 48.127 178.194 49.3516 175.007 49.3516ZM174.602 32.3008C173.29 32.3008 172.188 32.7812 171.298 33.7422C170.407 34.6914 169.856 36.0273 169.645 37.75H179.173V37.5039C179.079 35.8516 178.634 34.5742 177.837 33.6719C177.04 32.7578 175.962 32.3008 174.602 32.3008ZM190.616 25.375V29.9805H194.167V32.4941H190.616V44.2891C190.616 45.0508 190.774 45.625 191.091 46.0117C191.407 46.3867 191.946 46.5742 192.708 46.5742C193.083 46.5742 193.598 46.5039 194.255 46.3633V49C193.399 49.2344 192.567 49.3516 191.759 49.3516C190.305 49.3516 189.21 48.9121 188.471 48.0332C187.733 47.1543 187.364 45.9062 187.364 44.2891V32.4941H183.901V29.9805H187.364V25.375H190.616ZM204.749 39.4551H196.171V36.8008H204.749V39.4551ZM208.44 49V23.4062H216.807C219.585 23.4062 221.671 23.9805 223.065 25.1289C224.471 26.2773 225.175 27.9766 225.175 30.2266C225.175 31.4219 224.835 32.4824 224.155 33.4082C223.475 34.3223 222.55 35.0312 221.378 35.5352C222.76 35.9219 223.85 36.6602 224.647 37.75C225.456 38.8281 225.86 40.1172 225.86 41.6172C225.86 43.9141 225.116 45.7188 223.628 47.0312C222.139 48.3438 220.036 49 217.317 49H208.44ZM211.815 37.0293V46.2402H217.387C218.958 46.2402 220.194 45.8359 221.096 45.0273C222.01 44.207 222.468 43.082 222.468 41.6523C222.468 38.5703 220.792 37.0293 217.44 37.0293H211.815ZM211.815 34.3223H216.913C218.389 34.3223 219.567 33.9531 220.446 33.2148C221.337 32.4766 221.782 31.4746 221.782 30.209C221.782 28.8027 221.372 27.7832 220.552 27.1504C219.731 26.5059 218.483 26.1836 216.807 26.1836H211.815V34.3223ZM229.499 39.3145C229.499 37.4512 229.862 35.7754 230.589 34.2871C231.327 32.7988 232.346 31.6504 233.647 30.8418C234.96 30.0332 236.454 29.6289 238.13 29.6289C240.719 29.6289 242.811 30.5254 244.405 32.3184C246.01 34.1113 246.813 36.4961 246.813 39.4727V39.7012C246.813 41.5527 246.456 43.2168 245.741 44.6934C245.038 46.1582 244.024 47.3008 242.7 48.1211C241.387 48.9414 239.876 49.3516 238.165 49.3516C235.587 49.3516 233.495 48.4551 231.889 46.6621C230.296 44.8691 229.499 42.4961 229.499 39.543V39.3145ZM232.768 39.7012C232.768 41.8105 233.255 43.5039 234.227 44.7812C235.212 46.0586 236.524 46.6973 238.165 46.6973C239.817 46.6973 241.13 46.0527 242.102 44.7637C243.075 43.4629 243.561 41.6465 243.561 39.3145C243.561 37.2285 243.063 35.541 242.067 34.252C241.083 32.9512 239.77 32.3008 238.13 32.3008C236.524 32.3008 235.229 32.9395 234.245 34.2168C233.26 35.4941 232.768 37.3223 232.768 39.7012ZM256.885 36.9238L261.104 29.9805H264.901L258.678 39.3848L265.094 49H261.333L256.938 41.8809L252.544 49H248.764L255.18 39.3848L248.958 29.9805H252.719L256.885 36.9238Z" fill="url(#paint8_linear)"/>
<path d="M155.356 64.417C155.356 65.2243 155.171 65.8737 154.8 66.3652C154.428 66.8535 153.93 67.0977 153.305 67.0977C152.638 67.0977 152.122 66.8617 151.758 66.3896L151.714 67H150.884V59.5H151.787V62.2979C152.151 61.8454 152.654 61.6191 153.296 61.6191C153.937 61.6191 154.44 61.8617 154.804 62.3467C155.172 62.8317 155.356 63.4958 155.356 64.3389V64.417ZM154.453 64.3145C154.453 63.6992 154.334 63.224 154.096 62.8887C153.859 62.5534 153.517 62.3857 153.071 62.3857C152.475 62.3857 152.047 62.6624 151.787 63.2158V65.501C152.064 66.0544 152.495 66.3311 153.081 66.3311C153.514 66.3311 153.851 66.1634 154.092 65.8281C154.332 65.4928 154.453 64.9883 154.453 64.3145ZM158.169 65.6768L159.399 61.7168H160.366L158.242 67.8154C157.913 68.6943 157.391 69.1338 156.675 69.1338L156.504 69.1191L156.167 69.0557V68.3232L156.411 68.3428C156.717 68.3428 156.955 68.2809 157.124 68.1572C157.296 68.0335 157.438 67.8073 157.549 67.4785L157.749 66.9414L155.864 61.7168H156.85L158.169 65.6768ZM161.147 66.5264C161.147 66.3701 161.193 66.2399 161.284 66.1357C161.378 66.0316 161.518 65.9795 161.704 65.9795C161.889 65.9795 162.029 66.0316 162.124 66.1357C162.221 66.2399 162.27 66.3701 162.27 66.5264C162.27 66.6761 162.221 66.8014 162.124 66.9023C162.029 67.0033 161.889 67.0537 161.704 67.0537C161.518 67.0537 161.378 67.0033 161.284 66.9023C161.193 66.8014 161.147 66.6761 161.147 66.5264ZM161.152 62.2148C161.152 62.0586 161.198 61.9284 161.289 61.8242C161.383 61.7201 161.523 61.668 161.709 61.668C161.894 61.668 162.034 61.7201 162.129 61.8242C162.226 61.9284 162.275 62.0586 162.275 62.2148C162.275 62.3646 162.226 62.4899 162.129 62.5908C162.034 62.6917 161.894 62.7422 161.709 62.7422C161.523 62.7422 161.383 62.6917 161.289 62.5908C161.198 62.4899 161.152 62.3646 161.152 62.2148ZM170.146 65.1445H167.168L166.499 67H165.532L168.247 59.8906H169.067L171.787 67H170.825L170.146 65.1445ZM167.451 64.373H169.868L168.657 61.0479L167.451 64.373ZM173.584 67H172.68V59.5H173.584V67ZM177.226 67.0977C176.51 67.0977 175.927 66.8633 175.478 66.3945C175.029 65.9225 174.804 65.2926 174.804 64.5049V64.3389C174.804 63.8148 174.904 63.3477 175.102 62.9375C175.304 62.5241 175.584 62.2018 175.942 61.9707C176.303 61.7363 176.694 61.6191 177.114 61.6191C177.801 61.6191 178.335 61.8454 178.716 62.2979C179.096 62.7503 179.287 63.3981 179.287 64.2412V64.6172H175.708C175.721 65.138 175.872 65.5596 176.162 65.8818C176.455 66.2008 176.826 66.3604 177.275 66.3604C177.594 66.3604 177.864 66.2952 178.086 66.165C178.307 66.0348 178.501 65.8623 178.667 65.6475L179.219 66.0771C178.776 66.7575 178.112 67.0977 177.226 67.0977ZM177.114 62.3613C176.749 62.3613 176.443 62.4948 176.196 62.7617C175.949 63.0254 175.796 63.3965 175.737 63.875H178.384V63.8066C178.358 63.3477 178.234 62.9928 178.012 62.7422C177.791 62.4883 177.492 62.3613 177.114 62.3613ZM181.191 61.7168L181.22 62.3809C181.624 61.873 182.151 61.6191 182.802 61.6191C183.919 61.6191 184.482 62.249 184.492 63.5088V67H183.589V63.5039C183.585 63.123 183.497 62.8415 183.325 62.6592C183.156 62.4769 182.89 62.3857 182.529 62.3857C182.236 62.3857 181.979 62.4639 181.758 62.6201C181.536 62.7764 181.364 62.9814 181.24 63.2354V67H180.337V61.7168H181.191ZM187.973 66.3604C188.296 66.3604 188.577 66.2627 188.818 66.0674C189.059 65.8721 189.192 65.6279 189.219 65.335H190.073C190.057 65.6377 189.953 65.9258 189.76 66.1992C189.568 66.4727 189.311 66.6908 188.989 66.8535C188.67 67.0163 188.331 67.0977 187.973 67.0977C187.254 67.0977 186.681 66.8584 186.255 66.3799C185.831 65.8981 185.62 65.2406 185.62 64.4072V64.2559C185.62 63.7415 185.714 63.2842 185.903 62.8838C186.092 62.4834 186.362 62.1725 186.714 61.9512C187.068 61.7298 187.487 61.6191 187.969 61.6191C188.561 61.6191 189.052 61.7965 189.443 62.1514C189.837 62.5062 190.047 62.9668 190.073 63.5332H189.219C189.192 63.1914 189.062 62.9115 188.828 62.6934C188.597 62.472 188.31 62.3613 187.969 62.3613C187.51 62.3613 187.153 62.5273 186.899 62.8594C186.649 63.1882 186.523 63.665 186.523 64.29V64.4609C186.523 65.0697 186.649 65.5384 186.899 65.8672C187.15 66.196 187.508 66.3604 187.973 66.3604ZM194.35 67C194.298 66.8958 194.256 66.7103 194.223 66.4434C193.803 66.8796 193.302 67.0977 192.719 67.0977C192.199 67.0977 191.771 66.9512 191.435 66.6582C191.103 66.362 190.937 65.9876 190.937 65.5352C190.937 64.985 191.146 64.5586 191.562 64.2559C191.982 63.9499 192.571 63.7969 193.33 63.7969H194.209V63.3818C194.209 63.0661 194.114 62.8154 193.926 62.6299C193.737 62.4411 193.458 62.3467 193.091 62.3467C192.768 62.3467 192.498 62.4281 192.28 62.5908C192.062 62.7536 191.953 62.9505 191.953 63.1816H191.045C191.045 62.918 191.137 62.6641 191.323 62.4199C191.512 62.1725 191.766 61.9772 192.085 61.834C192.407 61.6908 192.76 61.6191 193.144 61.6191C193.753 61.6191 194.23 61.7721 194.575 62.0781C194.92 62.3809 195.099 62.7992 195.112 63.333V65.7646C195.112 66.2497 195.174 66.6354 195.298 66.9219V67H194.35ZM192.851 66.3115C193.135 66.3115 193.403 66.2383 193.657 66.0918C193.911 65.9453 194.095 65.7549 194.209 65.5205V64.4365H193.501C192.394 64.4365 191.841 64.7604 191.841 65.4082C191.841 65.6914 191.935 65.9128 192.124 66.0723C192.313 66.2318 192.555 66.3115 192.851 66.3115ZM199.082 62.5273C198.945 62.5046 198.797 62.4932 198.637 62.4932C198.045 62.4932 197.643 62.7454 197.431 63.25V67H196.528V61.7168H197.407L197.422 62.3271C197.718 61.8551 198.138 61.6191 198.681 61.6191C198.857 61.6191 198.991 61.6419 199.082 61.6875V62.5273Z" fill="#4D4E4F"/>
<defs>
<linearGradient id="paint0_linear" x1="38.1998" y1="35.6401" x2="15.7998" y2="35.6401" gradientUnits="userSpaceOnUse">
<stop stop-color="#FF5EEF"/>
<stop offset="1" stop-color="#E1E1FF"/>
</linearGradient>
<linearGradient id="paint1_linear" x1="38.2" y1="35.6401" x2="60.3999" y2="35.6401" gradientUnits="userSpaceOnUse">
<stop stop-color="#FF5EEF"/>
<stop offset="1" stop-color="white"/>
</linearGradient>
<linearGradient id="paint2_linear" x1="38.1998" y1="50.4" x2="15.7998" y2="50.4" gradientUnits="userSpaceOnUse">
<stop stop-color="#F262E4"/>
<stop offset="1" stop-color="#80B4FF"/>
</linearGradient>
<linearGradient id="paint3_linear" x1="38.2" y1="50.5" x2="60.4" y2="50.5" gradientUnits="userSpaceOnUse">
<stop stop-color="#F262E4"/>
<stop offset="1" stop-color="#B4C8FF"/>
</linearGradient>
<linearGradient id="paint4_linear" x1="1.35496" y1="15.3001" x2="37.8448" y2="15.3001" gradientUnits="userSpaceOnUse">
<stop stop-color="#FF00E5" stop-opacity="0.588235"/>
<stop offset="1" stop-color="#00B4FF" stop-opacity="0.784314"/>
</linearGradient>
<linearGradient id="paint5_linear" x1="74.8448" y1="15.3001" x2="38.355" y2="15.3001" gradientUnits="userSpaceOnUse">
<stop stop-color="#FF00E5" stop-opacity="0.784314"/>
<stop offset="1" stop-color="#00B4FF" stop-opacity="0.588235"/>
</linearGradient>
<linearGradient id="paint6_linear" x1="38.1584" y1="43.3" x2="75.0317" y2="43.6253" gradientUnits="userSpaceOnUse">
<stop stop-color="#FF00E5" stop-opacity="0.784314"/>
<stop offset="1" stop-color="#00B4FF" stop-opacity="0.588235"/>
</linearGradient>
<linearGradient id="paint7_linear" x1="37.8485" y1="43.3" x2="0.947556" y2="42.9743" gradientUnits="userSpaceOnUse">
<stop stop-color="#FF00E5" stop-opacity="0.588235"/>
<stop offset="1" stop-color="#00B4FF" stop-opacity="0.784314"/>
</linearGradient>
<linearGradient id="paint8_linear" x1="175.7" y1="16" x2="175.7" y2="58" gradientUnits="userSpaceOnUse">
<stop stop-color="#00B4FF"/>
<stop offset="1" stop-color="white" stop-opacity="0"/>
</linearGradient>
</defs>
</svg>
