<svg width="500" height="500" viewBox="0 0 500 500" fill="none" xmlns="http://www.w3.org/2000/svg">
<path d="M261.651 276.298H235.686V298.269H261.651V276.298Z" fill="#C8C8FF"/>
<path d="M249.001 137.816L127.83 216.378V360.186L249.001 281.625V137.816Z" fill="url(#paint0_linear)"/>
<path d="M249.001 137.816L370.173 216.378V360.186L249.001 281.625V137.816Z" fill="url(#paint1_linear)"/>
<path d="M249.001 432.756L127.83 356.858V213.049L249.001 288.948V432.756Z" fill="url(#paint2_linear)"/>
<path d="M249.001 433.422L370.173 357.523V213.715L249.001 289.614V433.422Z" fill="url(#paint3_linear)"/>
<path d="M129.827 215.047L247.67 138.482L165.113 71.2384L49.9333 147.137L129.827 215.047Z" fill="url(#paint4_linear)"/>
<path d="M368.176 215.047L250.333 138.482L332.889 71.2384L448.069 147.137L368.176 215.047Z" fill="url(#paint5_linear)"/>
<path d="M248.983 288.282L369.507 215.047L448.791 280.293L331.558 357.523L248.983 288.282Z" fill="url(#paint6_linear)"/>
<path d="M247.651 288.282L129.827 215.047L47.9922 280.293L163.782 357.523L247.651 288.282Z" fill="url(#paint7_linear)"/>
<path d="M49.2676 147.137L165.779 70.5726L248.336 139.148L331.558 69.9069L450.067 147.137L368.841 213.049L449.401 279.627L369.507 333.555V355.526L248.336 432.756L128.495 356.192V332.89L47.936 278.296L129.161 214.381L49.2676 147.137Z" stroke="#FF00E5" stroke-width="11" stroke-linejoin="round"/>
<defs>
<linearGradient id="paint0_linear" x1="249.001" y1="247.67" x2="127.83" y2="247.67" gradientUnits="userSpaceOnUse">
<stop stop-color="#FF5EEF"/>
<stop offset="1" stop-color="#E1E1FF"/>
</linearGradient>
<linearGradient id="paint1_linear" x1="249.001" y1="247.67" x2="370.173" y2="247.67" gradientUnits="userSpaceOnUse">
<stop stop-color="#FF5EEF"/>
<stop offset="1" stop-color="white"/>
</linearGradient>
<linearGradient id="paint2_linear" x1="249.001" y1="322.903" x2="127.83" y2="322.903" gradientUnits="userSpaceOnUse">
<stop stop-color="#F262E4"/>
<stop offset="1" stop-color="#80B4FF"/>
</linearGradient>
<linearGradient id="paint3_linear" x1="249.001" y1="323.568" x2="370.173" y2="323.568" gradientUnits="userSpaceOnUse">
<stop stop-color="#F262E4"/>
<stop offset="1" stop-color="#B4C8FF"/>
</linearGradient>
<linearGradient id="paint4_linear" x1="49.6892" y1="143.143" x2="247.914" y2="143.143" gradientUnits="userSpaceOnUse">
<stop stop-color="#FF00E5" stop-opacity="0.588235"/>
<stop offset="1" stop-color="#00B4FF" stop-opacity="0.784314"/>
</linearGradient>
<linearGradient id="paint5_linear" x1="448.313" y1="143.143" x2="250.089" y2="143.143" gradientUnits="userSpaceOnUse">
<stop stop-color="#FF00E5" stop-opacity="0.784314"/>
<stop offset="1" stop-color="#00B4FF" stop-opacity="0.588235"/>
</linearGradient>
<linearGradient id="paint6_linear" x1="248.757" y1="286.285" x2="448.962" y2="288.156" gradientUnits="userSpaceOnUse">
<stop stop-color="#FF00E5" stop-opacity="0.784314"/>
<stop offset="1" stop-color="#00B4FF" stop-opacity="0.588235"/>
</linearGradient>
<linearGradient id="paint7_linear" x1="247.914" y1="286.285" x2="47.7095" y2="284.414" gradientUnits="userSpaceOnUse">
<stop stop-color="#FF00E5" stop-opacity="0.588235"/>
<stop offset="1" stop-color="#00B4FF" stop-opacity="0.784314"/>
</linearGradient>
</defs>
</svg>
