<svg width="134" height="37" viewBox="0 0 134 37" fill="none" xmlns="http://www.w3.org/2000/svg">
<path d="M20.6 21.2H18.2V23.3H20.6V21.2Z" fill="#C8C8FF"/>
<path d="M19.5 7.59998L8.30005 15.2664V29.3L19.5 21.6335V7.59998Z" fill="url(#paint0_linear)"/>
<path d="M19.5 7.59998L30.6 15.2664V29.3L19.5 21.6335V7.59998Z" fill="url(#paint1_linear)"/>
<path d="M19.5 36.4L8.30005 29.0073V15L19.5 22.3927V36.4Z" fill="url(#paint2_linear)"/>
<path d="M19.5 36.5L30.6 29.0727V15L19.5 22.4273V36.5Z" fill="url(#paint3_linear)"/>
<path d="M8.45363 15.2L19.3001 7.69303L11.7014 1.09998L1.1001 8.54164L8.45363 15.2Z" fill="url(#paint4_linear)"/>
<path d="M30.4466 15.2L19.6001 7.69303L27.1988 1.09998L37.8001 8.54164L30.4466 15.2Z" fill="url(#paint5_linear)"/>
<path d="M19.5 22.3448L30.5989 15.2L37.9 21.5654L27.1042 29.1L19.5 22.3448Z" fill="url(#paint6_linear)"/>
<path d="M19.2999 22.3448L8.44157 15.2L0.899902 21.5654L11.5707 29.1L19.2999 22.3448Z" fill="url(#paint7_linear)"/>
<path d="M1.02275 8.53468L11.7719 1.06495L19.3885 7.75523L27.0665 1L37.9999 8.53468L30.5062 14.9651L37.9385 21.4606L30.5676 26.7218V28.8653L19.3885 36.4L8.33219 28.9303V26.6569L0.899902 21.3306L8.39361 15.095L1.02275 8.53468Z" stroke="#FF00E5" stroke-linejoin="round"/>
<path d="M49.1787 20.8232H46.1729V26H44.4766V13.2031H48.7129C50.1543 13.2031 51.2617 13.5312 52.0352 14.1875C52.8145 14.8438 53.2041 15.7988 53.2041 17.0527C53.2041 17.8496 52.9873 18.5439 52.5537 19.1357C52.126 19.7275 51.5283 20.1699 50.7607 20.4629L53.7666 25.8945V26H51.9561L49.1787 20.8232ZM46.1729 19.4434H48.7656C49.6035 19.4434 50.2686 19.2266 50.7607 18.793C51.2588 18.3594 51.5078 17.7793 51.5078 17.0527C51.5078 16.2617 51.2705 15.6553 50.7959 15.2334C50.3271 14.8115 49.6475 14.5977 48.7568 14.5918H46.1729V19.4434ZM54.8916 21.1572C54.8916 20.2256 55.0732 19.3877 55.4365 18.6436C55.8057 17.8994 56.3154 17.3252 56.9658 16.9209C57.6221 16.5166 58.3691 16.3145 59.207 16.3145C60.502 16.3145 61.5479 16.7627 62.3447 17.6592C63.1475 18.5557 63.5488 19.748 63.5488 21.2363V21.3506C63.5488 22.2764 63.3701 23.1084 63.0127 23.8467C62.6611 24.5791 62.1543 25.1504 61.4922 25.5605C60.8359 25.9707 60.0801 26.1758 59.2246 26.1758C57.9355 26.1758 56.8896 25.7275 56.0869 24.8311C55.29 23.9346 54.8916 22.748 54.8916 21.2715V21.1572ZM56.5264 21.3506C56.5264 22.4053 56.7695 23.252 57.2559 23.8906C57.748 24.5293 58.4043 24.8486 59.2246 24.8486C60.0508 24.8486 60.707 24.5264 61.1934 23.8818C61.6797 23.2314 61.9229 22.3232 61.9229 21.1572C61.9229 20.1143 61.6738 19.2705 61.1758 18.626C60.6836 17.9756 60.0273 17.6504 59.207 17.6504C58.4043 17.6504 57.7568 17.9697 57.2646 18.6084C56.7725 19.2471 56.5264 20.1611 56.5264 21.3506ZM69.4023 24.8486C69.9824 24.8486 70.4893 24.6729 70.9229 24.3213C71.3564 23.9697 71.5967 23.5303 71.6436 23.0029H73.1816C73.1523 23.5479 72.9648 24.0664 72.6191 24.5586C72.2734 25.0508 71.8105 25.4434 71.2305 25.7363C70.6562 26.0293 70.0469 26.1758 69.4023 26.1758C68.1074 26.1758 67.0762 25.7451 66.3086 24.8838C65.5469 24.0166 65.166 22.833 65.166 21.333V21.0605C65.166 20.1348 65.3359 19.3115 65.6758 18.5908C66.0156 17.8701 66.502 17.3105 67.1348 16.9121C67.7734 16.5137 68.5264 16.3145 69.3936 16.3145C70.46 16.3145 71.3447 16.6338 72.0479 17.2725C72.7568 17.9111 73.1348 18.7402 73.1816 19.7598H71.6436C71.5967 19.1445 71.3623 18.6406 70.9404 18.248C70.5244 17.8496 70.0088 17.6504 69.3936 17.6504C68.5674 17.6504 67.9258 17.9492 67.4688 18.5469C67.0176 19.1387 66.792 19.9971 66.792 21.1221V21.4297C66.792 22.5254 67.0176 23.3691 67.4688 23.9609C67.9199 24.5527 68.5645 24.8486 69.4023 24.8486ZM77.6641 21.5967L76.6445 22.6602V26H75.0186V12.5H76.6445V20.665L77.5146 19.6191L80.4766 16.4902H82.4541L78.7539 20.4629L82.8848 26H80.9775L77.6641 21.5967ZM87.9033 26.1758C86.6143 26.1758 85.5654 25.7539 84.7568 24.9102C83.9482 24.0605 83.5439 22.9268 83.5439 21.5088V21.21C83.5439 20.2666 83.7227 19.4258 84.0801 18.6875C84.4434 17.9434 84.9473 17.3633 85.5918 16.9473C86.2422 16.5254 86.9453 16.3145 87.7012 16.3145C88.9375 16.3145 89.8984 16.7217 90.584 17.5361C91.2695 18.3506 91.6123 19.5166 91.6123 21.0342V21.7109H85.1699C85.1934 22.6484 85.4658 23.4072 85.9873 23.9873C86.5146 24.5615 87.1826 24.8486 87.9912 24.8486C88.5654 24.8486 89.0518 24.7314 89.4502 24.4971C89.8486 24.2627 90.1973 23.9521 90.4961 23.5654L91.4893 24.3389C90.6924 25.5635 89.4971 26.1758 87.9033 26.1758ZM87.7012 17.6504C87.0449 17.6504 86.4941 17.8906 86.0488 18.3711C85.6035 18.8457 85.3281 19.5137 85.2227 20.375H89.9863V20.252C89.9395 19.4258 89.7168 18.7871 89.3184 18.3359C88.9199 17.8789 88.3809 17.6504 87.7012 17.6504ZM95.708 14.1875V16.4902H97.4834V17.7471H95.708V23.6445C95.708 24.0254 95.7871 24.3125 95.9453 24.5059C96.1035 24.6934 96.373 24.7871 96.7539 24.7871C96.9414 24.7871 97.1992 24.752 97.5273 24.6816V26C97.0996 26.1172 96.6836 26.1758 96.2793 26.1758C95.5527 26.1758 95.0049 25.9561 94.6357 25.5166C94.2666 25.0771 94.082 24.4531 94.082 23.6445V17.7471H92.3506V16.4902H94.082V14.1875H95.708ZM102.774 21.2275H98.4854V19.9004H102.774V21.2275ZM104.62 26V13.2031H108.804C110.192 13.2031 111.235 13.4902 111.933 14.0645C112.636 14.6387 112.987 15.4883 112.987 16.6133C112.987 17.2109 112.817 17.7412 112.478 18.2041C112.138 18.6611 111.675 19.0156 111.089 19.2676C111.78 19.4609 112.325 19.8301 112.724 20.375C113.128 20.9141 113.33 21.5586 113.33 22.3086C113.33 23.457 112.958 24.3594 112.214 25.0156C111.47 25.6719 110.418 26 109.059 26H104.62ZM106.308 20.0146V24.6201H109.094C109.879 24.6201 110.497 24.418 110.948 24.0137C111.405 23.6035 111.634 23.041 111.634 22.3262C111.634 20.7852 110.796 20.0146 109.12 20.0146H106.308ZM106.308 18.6611H108.856C109.595 18.6611 110.184 18.4766 110.623 18.1074C111.068 17.7383 111.291 17.2373 111.291 16.6045C111.291 15.9014 111.086 15.3916 110.676 15.0752C110.266 14.7529 109.642 14.5918 108.804 14.5918H106.308V18.6611ZM115.149 21.1572C115.149 20.2256 115.331 19.3877 115.694 18.6436C116.063 17.8994 116.573 17.3252 117.224 16.9209C117.88 16.5166 118.627 16.3145 119.465 16.3145C120.76 16.3145 121.806 16.7627 122.603 17.6592C123.405 18.5557 123.807 19.748 123.807 21.2363V21.3506C123.807 22.2764 123.628 23.1084 123.271 23.8467C122.919 24.5791 122.412 25.1504 121.75 25.5605C121.094 25.9707 120.338 26.1758 119.482 26.1758C118.193 26.1758 117.147 25.7275 116.345 24.8311C115.548 23.9346 115.149 22.748 115.149 21.2715V21.1572ZM116.784 21.3506C116.784 22.4053 117.027 23.252 117.514 23.8906C118.006 24.5293 118.662 24.8486 119.482 24.8486C120.309 24.8486 120.965 24.5264 121.451 23.8818C121.938 23.2314 122.181 22.3232 122.181 21.1572C122.181 20.1143 121.932 19.2705 121.434 18.626C120.941 17.9756 120.285 17.6504 119.465 17.6504C118.662 17.6504 118.015 17.9697 117.522 18.6084C117.03 19.2471 116.784 20.1611 116.784 21.3506ZM128.843 19.9619L130.952 16.4902H132.851L129.739 21.1924L132.947 26H131.066L128.869 22.4404L126.672 26H124.782L127.99 21.1924L124.879 16.4902H126.76L128.843 19.9619Z" fill="#FF00E5"/>
<path d="M49.1787 20.8232H46.1729V26H44.4766V13.2031H48.7129C50.1543 13.2031 51.2617 13.5312 52.0352 14.1875C52.8145 14.8438 53.2041 15.7988 53.2041 17.0527C53.2041 17.8496 52.9873 18.5439 52.5537 19.1357C52.126 19.7275 51.5283 20.1699 50.7607 20.4629L53.7666 25.8945V26H51.9561L49.1787 20.8232ZM46.1729 19.4434H48.7656C49.6035 19.4434 50.2686 19.2266 50.7607 18.793C51.2588 18.3594 51.5078 17.7793 51.5078 17.0527C51.5078 16.2617 51.2705 15.6553 50.7959 15.2334C50.3271 14.8115 49.6475 14.5977 48.7568 14.5918H46.1729V19.4434ZM54.8916 21.1572C54.8916 20.2256 55.0732 19.3877 55.4365 18.6436C55.8057 17.8994 56.3154 17.3252 56.9658 16.9209C57.6221 16.5166 58.3691 16.3145 59.207 16.3145C60.502 16.3145 61.5479 16.7627 62.3447 17.6592C63.1475 18.5557 63.5488 19.748 63.5488 21.2363V21.3506C63.5488 22.2764 63.3701 23.1084 63.0127 23.8467C62.6611 24.5791 62.1543 25.1504 61.4922 25.5605C60.8359 25.9707 60.0801 26.1758 59.2246 26.1758C57.9355 26.1758 56.8896 25.7275 56.0869 24.8311C55.29 23.9346 54.8916 22.748 54.8916 21.2715V21.1572ZM56.5264 21.3506C56.5264 22.4053 56.7695 23.252 57.2559 23.8906C57.748 24.5293 58.4043 24.8486 59.2246 24.8486C60.0508 24.8486 60.707 24.5264 61.1934 23.8818C61.6797 23.2314 61.9229 22.3232 61.9229 21.1572C61.9229 20.1143 61.6738 19.2705 61.1758 18.626C60.6836 17.9756 60.0273 17.6504 59.207 17.6504C58.4043 17.6504 57.7568 17.9697 57.2646 18.6084C56.7725 19.2471 56.5264 20.1611 56.5264 21.3506ZM69.4023 24.8486C69.9824 24.8486 70.4893 24.6729 70.9229 24.3213C71.3564 23.9697 71.5967 23.5303 71.6436 23.0029H73.1816C73.1523 23.5479 72.9648 24.0664 72.6191 24.5586C72.2734 25.0508 71.8105 25.4434 71.2305 25.7363C70.6562 26.0293 70.0469 26.1758 69.4023 26.1758C68.1074 26.1758 67.0762 25.7451 66.3086 24.8838C65.5469 24.0166 65.166 22.833 65.166 21.333V21.0605C65.166 20.1348 65.3359 19.3115 65.6758 18.5908C66.0156 17.8701 66.502 17.3105 67.1348 16.9121C67.7734 16.5137 68.5264 16.3145 69.3936 16.3145C70.46 16.3145 71.3447 16.6338 72.0479 17.2725C72.7568 17.9111 73.1348 18.7402 73.1816 19.7598H71.6436C71.5967 19.1445 71.3623 18.6406 70.9404 18.248C70.5244 17.8496 70.0088 17.6504 69.3936 17.6504C68.5674 17.6504 67.9258 17.9492 67.4688 18.5469C67.0176 19.1387 66.792 19.9971 66.792 21.1221V21.4297C66.792 22.5254 67.0176 23.3691 67.4688 23.9609C67.9199 24.5527 68.5645 24.8486 69.4023 24.8486ZM77.6641 21.5967L76.6445 22.6602V26H75.0186V12.5H76.6445V20.665L77.5146 19.6191L80.4766 16.4902H82.4541L78.7539 20.4629L82.8848 26H80.9775L77.6641 21.5967ZM87.9033 26.1758C86.6143 26.1758 85.5654 25.7539 84.7568 24.9102C83.9482 24.0605 83.5439 22.9268 83.5439 21.5088V21.21C83.5439 20.2666 83.7227 19.4258 84.0801 18.6875C84.4434 17.9434 84.9473 17.3633 85.5918 16.9473C86.2422 16.5254 86.9453 16.3145 87.7012 16.3145C88.9375 16.3145 89.8984 16.7217 90.584 17.5361C91.2695 18.3506 91.6123 19.5166 91.6123 21.0342V21.7109H85.1699C85.1934 22.6484 85.4658 23.4072 85.9873 23.9873C86.5146 24.5615 87.1826 24.8486 87.9912 24.8486C88.5654 24.8486 89.0518 24.7314 89.4502 24.4971C89.8486 24.2627 90.1973 23.9521 90.4961 23.5654L91.4893 24.3389C90.6924 25.5635 89.4971 26.1758 87.9033 26.1758ZM87.7012 17.6504C87.0449 17.6504 86.4941 17.8906 86.0488 18.3711C85.6035 18.8457 85.3281 19.5137 85.2227 20.375H89.9863V20.252C89.9395 19.4258 89.7168 18.7871 89.3184 18.3359C88.9199 17.8789 88.3809 17.6504 87.7012 17.6504ZM95.708 14.1875V16.4902H97.4834V17.7471H95.708V23.6445C95.708 24.0254 95.7871 24.3125 95.9453 24.5059C96.1035 24.6934 96.373 24.7871 96.7539 24.7871C96.9414 24.7871 97.1992 24.752 97.5273 24.6816V26C97.0996 26.1172 96.6836 26.1758 96.2793 26.1758C95.5527 26.1758 95.0049 25.9561 94.6357 25.5166C94.2666 25.0771 94.082 24.4531 94.082 23.6445V17.7471H92.3506V16.4902H94.082V14.1875H95.708ZM102.774 21.2275H98.4854V19.9004H102.774V21.2275ZM104.62 26V13.2031H108.804C110.192 13.2031 111.235 13.4902 111.933 14.0645C112.636 14.6387 112.987 15.4883 112.987 16.6133C112.987 17.2109 112.817 17.7412 112.478 18.2041C112.138 18.6611 111.675 19.0156 111.089 19.2676C111.78 19.4609 112.325 19.8301 112.724 20.375C113.128 20.9141 113.33 21.5586 113.33 22.3086C113.33 23.457 112.958 24.3594 112.214 25.0156C111.47 25.6719 110.418 26 109.059 26H104.62ZM106.308 20.0146V24.6201H109.094C109.879 24.6201 110.497 24.418 110.948 24.0137C111.405 23.6035 111.634 23.041 111.634 22.3262C111.634 20.7852 110.796 20.0146 109.12 20.0146H106.308ZM106.308 18.6611H108.856C109.595 18.6611 110.184 18.4766 110.623 18.1074C111.068 17.7383 111.291 17.2373 111.291 16.6045C111.291 15.9014 111.086 15.3916 110.676 15.0752C110.266 14.7529 109.642 14.5918 108.804 14.5918H106.308V18.6611ZM115.149 21.1572C115.149 20.2256 115.331 19.3877 115.694 18.6436C116.063 17.8994 116.573 17.3252 117.224 16.9209C117.88 16.5166 118.627 16.3145 119.465 16.3145C120.76 16.3145 121.806 16.7627 122.603 17.6592C123.405 18.5557 123.807 19.748 123.807 21.2363V21.3506C123.807 22.2764 123.628 23.1084 123.271 23.8467C122.919 24.5791 122.412 25.1504 121.75 25.5605C121.094 25.9707 120.338 26.1758 119.482 26.1758C118.193 26.1758 117.147 25.7275 116.345 24.8311C115.548 23.9346 115.149 22.748 115.149 21.2715V21.1572ZM116.784 21.3506C116.784 22.4053 117.027 23.252 117.514 23.8906C118.006 24.5293 118.662 24.8486 119.482 24.8486C120.309 24.8486 120.965 24.5264 121.451 23.8818C121.938 23.2314 122.181 22.3232 122.181 21.1572C122.181 20.1143 121.932 19.2705 121.434 18.626C120.941 17.9756 120.285 17.6504 119.465 17.6504C118.662 17.6504 118.015 17.9697 117.522 18.6084C117.03 19.2471 116.784 20.1611 116.784 21.3506ZM128.843 19.9619L130.952 16.4902H132.851L129.739 21.1924L132.947 26H131.066L128.869 22.4404L126.672 26H124.782L127.99 21.1924L124.879 16.4902H126.76L128.843 19.9619Z" fill="url(#paint8_linear)"/>
<defs>
<linearGradient id="paint0_linear" x1="19.5" y1="18.32" x2="8.30005" y2="18.32" gradientUnits="userSpaceOnUse">
<stop stop-color="#FF5EEF"/>
<stop offset="1" stop-color="#E1E1FF"/>
</linearGradient>
<linearGradient id="paint1_linear" x1="19.5" y1="18.32" x2="30.6" y2="18.32" gradientUnits="userSpaceOnUse">
<stop stop-color="#FF5EEF"/>
<stop offset="1" stop-color="white"/>
</linearGradient>
<linearGradient id="paint2_linear" x1="19.5" y1="25.7" x2="8.30005" y2="25.7" gradientUnits="userSpaceOnUse">
<stop stop-color="#F262E4"/>
<stop offset="1" stop-color="#80B4FF"/>
</linearGradient>
<linearGradient id="paint3_linear" x1="19.5" y1="25.75" x2="30.6" y2="25.75" gradientUnits="userSpaceOnUse">
<stop stop-color="#F262E4"/>
<stop offset="1" stop-color="#B4C8FF"/>
</linearGradient>
<linearGradient id="paint4_linear" x1="1.07763" y1="8.14998" x2="19.3226" y2="8.14998" gradientUnits="userSpaceOnUse">
<stop stop-color="#FF00E5" stop-opacity="0.588235"/>
<stop offset="1" stop-color="#00B4FF" stop-opacity="0.784314"/>
</linearGradient>
<linearGradient id="paint5_linear" x1="37.8226" y1="8.14998" x2="19.5776" y2="8.14998" gradientUnits="userSpaceOnUse">
<stop stop-color="#FF00E5" stop-opacity="0.784314"/>
<stop offset="1" stop-color="#00B4FF" stop-opacity="0.588235"/>
</linearGradient>
<linearGradient id="paint6_linear" x1="19.4792" y1="22.15" x2="37.9159" y2="22.3126" gradientUnits="userSpaceOnUse">
<stop stop-color="#FF00E5" stop-opacity="0.784314"/>
<stop offset="1" stop-color="#00B4FF" stop-opacity="0.588235"/>
</linearGradient>
<linearGradient id="paint7_linear" x1="19.3241" y1="22.15" x2="0.87368" y2="21.9871" gradientUnits="userSpaceOnUse">
<stop stop-color="#FF00E5" stop-opacity="0.588235"/>
<stop offset="1" stop-color="#00B4FF" stop-opacity="0.784314"/>
</linearGradient>
<linearGradient id="paint8_linear" x1="88.5" y1="9" x2="88.5" y2="30" gradientUnits="userSpaceOnUse">
<stop stop-color="#00B4FF"/>
<stop offset="1" stop-color="white" stop-opacity="0"/>
</linearGradient>
</defs>
</svg>
